HIERARCHY
ROOT Hips
{
	OFFSET 0.00000 0.00000 0.00000
	CHANNELS 6 Xposition Yposition Zposition Zrotation Yrotation Xrotation 
	JOINT LHipJoint
	{
		OFFSET 0 0 0
		CHANNELS 3 Zrotation Yrotation Xrotation
		JOINT LeftHip
		{
			OFFSET 1.66553 -1.82942 0.76350
			CHANNELS 3 Zrotation Yrotation Xrotation
			JOINT LeftKnee
			{
				OFFSET 2.41740 -6.64177 0.00000
				CHANNELS 3 Zrotation Yrotation Xrotation
				JOINT LeftAnkle
				{
					OFFSET 2.71614 -7.46254 0.00000
					CHANNELS 3 Zrotation Yrotation Xrotation
					JOINT LeftToe
					{
						OFFSET 0.08005 -0.21993 1.82495
						CHANNELS 3 Zrotation Yrotation Xrotation
						End Site
						{
							OFFSET 0.00000 -0.00000 0.93441
						}
					}
				}
			}
		}
	}
	JOINT RHipJoint
	{
		OFFSET 0 0 0
		CHANNELS 3 Zrotation Yrotation Xrotation
		JOINT RightHip
		{
			OFFSET -1.63725 -1.82942 0.76350
			CHANNELS 3 Zrotation Yrotation Xrotation
			JOINT RightKnee
			{
				OFFSET -2.40538 -6.60872 0.00000
				CHANNELS 3 Zrotation Yrotation Xrotation
				JOINT RightAnkle
				{
					OFFSET -2.73312 -7.50919 0.00000
					CHANNELS 3 Zrotation Yrotation Xrotation
					JOINT RightToe
					{
						OFFSET -0.15567 -0.42769 1.93504
						CHANNELS 3 Zrotation Yrotation Xrotation
						End Site
						{
							OFFSET -0.00000 -0.00000 1.00100
						}
					}
				}
			}
		}
	}
	JOINT lowerback
	{
		OFFSET 0 0 0
		CHANNELS 3 Zrotation Yrotation Xrotation
		JOINT Chest
		{
			OFFSET 0.00326 2.30118 -0.13017
			CHANNELS 3 Zrotation Yrotation Xrotation
			JOINT Chest2
			{
				OFFSET 0.02887 2.30677 0.00834
				CHANNELS 3 Zrotation Yrotation Xrotation
				JOINT lowerneck
				{
					OFFSET 0 0 0
					CHANNELS 3 Zrotation Yrotation Xrotation
					JOINT Neck
					{
						OFFSET 0.12946 1.68326 0.00713
						CHANNELS 3 Zrotation Yrotation Xrotation
						JOINT Head
						{
							OFFSET -0.24364 1.67243 -0.16079
							CHANNELS 3 Zrotation Yrotation Xrotation
							End Site
							{
								OFFSET -0.09229 1.70819 -0.06383
							}
						}
					}
				}
				JOINT LeftCollar
				{
					OFFSET 0 0 0
					CHANNELS 3 Zrotation Yrotation Xrotation
					JOINT LeftShoulder
					{
						OFFSET 3.28104 0.69567 -0.00556
CHANNELS 3 Zrotation Xrotation Yrotation
						JOINT LeftElbow
						{
OFFSET 0 -5.707060 -0.000000
CHANNELS 3 Zrotation Xrotation Yrotation
							JOINT LeftWrist
							{
OFFSET 0 -3.332430 0.000000
CHANNELS 3 Zrotation Xrotation Yrotation
								JOINT lhand
								{
									OFFSET 0 0 0
CHANNELS 3 Zrotation Xrotation Yrotation
									JOINT LFingers
									{
OFFSET 0 -0.792690 0.000000
CHANNELS 3 Zrotation Xrotation Yrotation
										End Site
										{
OFFSET 0 -0.639090 0.000000
										}
									}
								}
								JOINT LThumb
								{
OFFSET 0 0.000000 0.000000
CHANNELS 3 Zrotation Xrotation Yrotation
									End Site
									{
OFFSET 0 -0.648840 0.648840
									}
								}
							}
						}
					}
				}
				JOINT RightCollar
				{
					OFFSET 0 0 0
					CHANNELS 3 Zrotation Yrotation Xrotation
					JOINT RightShoulder
					{
						OFFSET -3.40955 0.64424 0.14010
CHANNELS 3 Zrotation Xrotation Yrotation
						JOINT RightElbow
						{
OFFSET 0 -5.881760 -0.000000
CHANNELS 3 Zrotation Xrotation Yrotation
							JOINT RightWrist
							{
OFFSET 0 -3.281560 0.000000
CHANNELS 3 Zrotation Xrotation Yrotation
								JOINT rhand
								{
									OFFSET 0 0 0
CHANNELS 3 Zrotation Xrotation Yrotation
									JOINT RFingers
									{
OFFSET 0 -0.863130 0.000000
CHANNELS 3 Zrotation Xrotation Yrotation
										End Site
										{
OFFSET 0 -0.695870 0.000000
										}
									}
								}
								JOINT RThumb
								{
OFFSET 0 0.000000 0.000000
CHANNELS 3 Zrotation Xrotation Yrotation
									End Site
									{
OFFSET 0 -0.706500 0.706500
									}
								}
							}
						}
					}
				}
			}
		}
	}
}
MOTION
Frames: 10
Frame Time: 0.008333333333333333
2.206242 7.184189 -6.785893 5.310125 23.960213 -5.889384 0.000000 0.000000 0.000000 88.281078 51.951909 -33.749674 38.171967 8.497464 155.763946 -35.291139 -73.401584 5.453505 0.988052 6.325598 17.732437 0.000000 0.000000 0.000000 176.229109 -55.034488 88.380943 -38.605683 -7.467900 158.889658 -15.503959 49.766584 -78.565786 -1.444991 -7.598402 21.501104 -2.394370 -4.584092 41.639941 -1.476171 -7.240401 0.326586 3.305176 -2.679951 -20.068467 15.939803 3.034158 0.828965 -19.177943 4.369866 0.621699 -8.555270 2.218076 0.838290 0.000000 0.000000 0.000000 36.229913 -28.632850 -41.609706 50.341194 -53.132151 26.446846 34.298512 -38.429506 -6.499313 0.000000 0.000000 0.000000 -7.125000 0.000000 0.000000 6.458969 37.759866 1.157146 0.000000 0.000000 0.000000 -13.856405 -28.579787 44.582493 -69.186952 -58.282272 -42.081025 -38.937915 -32.838362 -29.702817 0.000000 0.000000 0.000000 7.125000 0.000000 0.000000 -4.474443 -6.177566 -4.944388
2.261374 10.213588 -5.963298 8.412924 21.060146 1.272190 0.000000 0.000000 0.000000 12.479817 11.173657 -52.887977 33.814183 14.604433 134.279969 -2.903334 -28.496391 12.765019 1.095868 6.647770 18.677560 0.000000 0.000000 0.000000 1.134703 -30.703772 -87.790074 -35.276708 -13.063307 140.390719 1.753998 34.502171 -15.508110 -0.190295 -2.800995 7.725690 -1.251622 -2.660544 29.981186 -1.892977 -4.300993 -1.891092 0.425695 -1.800670 -18.224398 17.957669 7.149479 5.968561 -20.966604 11.083992 1.983923 -9.368449 5.829107 1.800438 0.000000 0.000000 0.000000 54.497712 -29.089072 -24.680481 48.286764 -52.280604 24.812409 29.784329 -33.766341 -11.432136 0.000000 0.000000 0.000000 -7.125000 0.000000 0.000000 2.403743 43.082757 0.113805 0.000000 0.000000 0.000000 -26.625559 -66.203189 26.701390 -92.825045 -59.969696 -62.446310 -42.500292 -32.124413 -30.362099 0.000000 0.000000 0.000000 7.125000 0.000000 0.000000 -6.260677 -8.286624 -7.138388
2.521246 12.577605 -4.861346 9.802359 20.581144 1.564401 0.000000 0.000000 0.000000 -3.068751 3.711549 -55.109104 30.397736 17.179732 121.849795 -0.918931 -18.104951 14.364100 0.066503 -1.663128 -4.575695 0.000000 0.000000 0.000000 -2.115681 4.223535 -63.930172 -30.367342 -17.197612 121.747186 0.586015 21.662158 -10.304719 -0.045308 1.310510 -3.604491 0.175949 -1.156556 24.308603 -2.267193 -1.868680 -2.886180 -2.055385 -0.998142 -17.281202 18.595954 8.685507 8.794167 -20.013068 13.960677 4.130154 -9.076881 7.401026 2.502445 0.000000 0.000000 0.000000 55.201827 -17.070745 -24.796332 62.991634 -57.054549 36.841465 28.423358 -38.346253 -8.918620 0.000000 0.000000 0.000000 -7.125000 0.000000 0.000000 1.324747 40.093724 0.160369 0.000000 0.000000 0.000000 -47.929983 -74.755124 5.590797 -103.318424 -59.318565 -71.507704 -44.590289 -35.650047 -33.279717 0.000000 0.000000 0.000000 7.125000 0.000000 0.000000 -6.534975 -12.439795 -7.831741
2.773692 13.084233 -4.262304 8.621085 20.384745 -0.044175 0.000000 0.000000 0.000000 -10.107301 -2.445110 -65.670785 27.536489 18.579751 112.549491 -0.928649 -19.396452 -3.278042 1.382442 -7.432916 -21.007489 0.000000 0.000000 0.000000 2.693338 7.702790 -53.347294 -28.563093 -18.142270 115.807638 -0.537939 18.887703 -17.598420 -0.013687 -0.756057 2.077837 1.651626 -0.612118 25.348981 -1.656369 -0.568918 -2.791181 -2.531491 -0.496744 -16.988978 19.154929 9.913922 9.210808 -20.172413 15.509891 1.959468 -9.140044 8.209763 2.186050 0.000000 0.000000 0.000000 48.730344 -1.241114 -25.177269 75.236281 -59.160165 47.250345 28.999551 -40.688087 -7.205251 0.000000 0.000000 0.000000 -7.125000 0.000000 0.000000 1.897814 38.198305 0.318069 0.000000 0.000000 0.000000 -47.505021 -73.507003 5.217365 -112.547169 -57.989174 -79.394619 -44.163437 -33.717781 -30.529257 0.000000 0.000000 0.000000 7.125000 0.000000 0.000000 -7.114674 -9.174197 -8.216631
3.394972 11.949263 -4.043930 7.542118 15.154754 -1.975826 0.000000 0.000000 0.000000 -8.935726 -12.244985 -75.325101 27.507241 18.591187 112.457644 -1.825285 -23.543053 4.005658 0.021934 0.938817 2.580721 0.000000 0.000000 0.000000 0.378161 6.978970 -56.232530 -31.670880 -16.356005 126.260324 -1.756112 18.960393 -25.496215 -0.005923 0.364473 -1.001387 4.081566 -0.076784 29.900946 -1.189920 1.170802 -1.386634 -4.066412 0.077598 -17.416242 19.959695 11.007683 10.085298 -22.962893 16.919857 -1.374028 -10.188872 9.045248 1.716600 0.000000 0.000000 0.000000 35.518020 14.163034 -29.614224 61.769411 -56.762824 35.817360 34.565416 -40.421364 -6.819629 0.000000 0.000000 0.000000 -7.125000 0.000000 0.000000 6.702034 38.163894 1.134298 0.000000 0.000000 0.000000 -30.503507 -66.580758 19.736959 -107.664779 -58.787385 -75.235813 -42.551350 -32.125686 -30.268743 0.000000 0.000000 0.000000 7.125000 0.000000 0.000000 -6.314068 -8.200551 -7.191000
4.300647 9.388810 -3.764009 5.215916 4.268988 -3.833133 0.000000 0.000000 0.000000 -3.621405 0.081863 -88.110312 34.388067 14.040850 136.597536 -1.055711 -28.955860 -13.966367 1.056268 -6.531024 -18.334575 0.000000 0.000000 0.000000 -30.373281 -56.005885 -62.601224 -37.030331 -10.644837 148.907776 -2.051180 48.982899 -41.690847 -0.477412 -4.408582 12.232243 4.126576 0.283358 35.691116 -0.091050 2.106344 -0.680499 -3.347513 0.473561 -19.120271 20.345959 13.531711 12.412887 -25.270506 20.435244 -4.518975 -10.875605 11.046202 1.548153 0.000000 0.000000 0.000000 19.105350 27.162410 -39.136661 34.472322 -44.429430 14.443478 25.991472 -38.395954 -11.872381 0.000000 0.000000 0.000000 -7.125000 0.000000 0.000000 -1.097484 43.139563 -0.046406 0.000000 0.000000 0.000000 -10.687516 -51.398444 39.335864 -80.279064 -59.637154 -51.591829 -43.249468 -29.040342 -28.952988 0.000000 0.000000 0.000000 7.125000 0.000000 0.000000 -7.047579 -6.988165 -7.909476
4.706629 6.919870 -3.324401 1.564913 -3.435134 -8.810597 0.000000 0.000000 0.000000 -145.557164 86.438748 111.607772 38.487674 7.765811 157.994667 8.689230 -50.868533 -61.182655 1.977061 -8.735345 -25.029167 0.000000 0.000000 0.000000 -148.451798 -42.389645 18.289201 -39.446551 -4.765553 166.758872 -22.405865 48.532494 -96.184241 -1.747288 -8.317817 23.683988 2.026854 -0.825795 42.229078 -0.643787 -0.211719 -0.131409 -1.708641 -0.327291 -21.096111 20.971290 16.798868 17.127631 -26.459957 24.736002 -11.679478 -11.543445 13.552819 0.026025 0.000000 0.000000 0.000000 11.602326 15.669927 -38.152441 16.818636 -26.618043 4.005705 9.887817 -36.858639 -14.264960 0.000000 0.000000 0.000000 -7.125000 0.000000 0.000000 -16.059912 43.846119 -0.468468 0.000000 0.000000 0.000000 -3.946372 -19.927302 45.414896 -30.199107 -41.046574 -11.546293 -66.040757 38.524004 -4.408129 0.000000 0.000000 0.000000 7.125000 0.000000 0.000000 -27.294140 19.704193 -18.485062
4.868291 8.280517 -3.104245 -0.398269 -6.417173 -3.094016 0.000000 0.000000 0.000000 -5.118983 59.952180 -98.687935 37.338065 10.124219 150.617905 -0.428464 -47.222606 -32.620405 0.452913 -4.291897 -11.902999 0.000000 0.000000 0.000000 -119.998686 -70.770668 18.166659 -38.349901 -8.092415 157.003081 -10.119568 48.880497 -64.387754 -0.404276 -4.048515 11.217475 -0.224691 0.174107 38.079110 -1.546442 -0.229407 -0.806788 -1.529317 -0.172848 -20.479489 17.281041 14.498502 11.815167 -20.917390 20.520923 -9.155493 -9.248486 10.909908 -0.511270 0.000000 0.000000 0.000000 24.581350 -23.490871 -33.508992 43.112439 -49.799133 20.789664 18.682602 -54.260758 -6.967327 0.000000 0.000000 0.000000 -7.125000 0.000000 0.000000 -6.880038 37.251626 -1.318861 0.000000 0.000000 0.000000 -12.710183 4.558043 -2.321827 -6.393101 -10.915310 -0.612616 -76.052619 103.330178 -3.858758 0.000000 0.000000 0.000000 7.125000 0.000000 0.000000 -32.948628 15.246283 -26.656149
4.689092 11.103249 -2.325130 -5.484962 -4.804557 -0.616774 0.000000 0.000000 0.000000 5.763081 1.861372 -74.281994 33.142972 15.208646 131.671400 0.217155 -22.001652 -17.088197 1.511906 -7.765342 -22.003508 0.000000 0.000000 0.000000 7.953069 -1.358612 -63.446367 -33.814603 -14.603650 134.282282 1.016961 18.878421 -0.528245 -4.024894 -12.187141 36.406210 -0.840458 -2.505430 29.360908 -1.363946 -3.865273 -1.927168 0.581340 -1.644432 -17.948069 12.681075 2.519192 0.660955 -12.549298 4.001951 7.589786 -5.837801 2.006147 2.616244 0.000000 0.000000 0.000000 52.542145 -55.266878 -11.353604 59.684521 -56.225065 34.078736 20.204667 -58.605166 -2.796580 0.000000 0.000000 0.000000 -7.125000 0.000000 0.000000 -5.191155 32.929326 -1.542979 0.000000 0.000000 0.000000 -24.780305 22.418788 11.436404 -5.577076 -9.554864 -0.466598 -45.359311 26.468823 -54.795088 0.000000 0.000000 0.000000 7.125000 0.000000 0.000000 1.924229 -33.632863 2.667951
4.418387 13.429033 -1.478715 -7.470919 -4.762852 -0.531679 0.000000 0.000000 0.000000 3.465005 -8.086117 -55.076314 27.080028 18.752299 111.124154 0.510473 -14.176159 -15.124564 2.918299 -10.557561 -30.805960 0.000000 0.000000 0.000000 13.155186 11.197849 -60.599362 -29.324492 -17.772579 118.276861 -2.434607 -8.903101 28.098089 -5.940760 -14.354827 44.713615 -2.905216 -4.977465 23.757607 -1.223674 -7.632017 -1.703004 2.976754 -3.244183 -15.108677 11.247279 -4.979308 -1.973863 -11.655322 -6.119229 13.534434 -5.646463 -3.108985 3.572453 0.000000 0.000000 0.000000 72.263795 -62.977887 7.390953 63.082451 -57.076051 36.917646 23.955114 -55.367775 0.210017 0.000000 0.000000 0.000000 -7.125000 0.000000 0.000000 -2.052956 29.746813 -0.764076 0.000000 0.000000 0.000000 -32.834374 28.221737 35.048415 -8.542335 -14.427758 -1.083671 -22.597261 16.866706 -42.817652 0.000000 0.000000 0.000000 7.125000 0.000000 0.000000 7.184337 -14.816154 8.842532
